<?xml version="1.0"?><svg width="161.3919" height="124.43358000000002" xmlns="http://www.w3.org/2000/svg">
 <title>sponge</title>
 <metadata id="metadata3">unsortedArchitetto Francesco RollandinArchitetto Francesco RollandinArchitetto Francesco Rollandinimage/svg+xmlen</metadata>
 <g>
  <title>Layer 1</title>
  <path d="m96.044998,19.302561c7.672005,-1.573 14.230003,3.535999 20.957001,2.796c5.608002,-0.617001 14.686005,-1.637001 20.192001,0.867001c6.063995,2.757999 8.485001,14.889038 9.473999,21.11404c0.854004,5.382999 3.069,10.774998 2.438995,16.292c-0.781998,6.861004 -6.16301,4.093998 -10.764999,9.835003c-4.60199,5.740997 -8.382034,1.648911 -14.143997,8.748001c-5.761963,7.099098 -23.679031,0.798988 -24.387001,6.643997c-0.70797,5.845009 -4.358025,14.572388 -13.43502,14.503418c-9.076973,-0.06897 -6.20285,3.094986 -22.717033,2.651993c-16.514164,-0.442993 2.405838,-4.229996 -17.230152,-4.229996c-11.16,0 -7.888031,-2.633018 -10.990021,-1.570976c-3.102001,1.062042 -5.963909,-0.054901 -5.89394,-0.117981c0.069969,-0.06308 -2.53801,-0.38649 -2.739029,-1.31144c-0.201012,-0.92495 -2.167992,-1.64991 -2.262993,-1.81501c-0.094997,-0.1651 -0.672958,-0.454903 -1.10302,-0.835953c-0.430069,-0.38105 -0.712009,-2.372978 -0.838997,-2.538025c-0.126991,-0.165039 0.065968,-3.427956 -0.00502,-3.576103c-0.070992,-0.148163 1.509007,-2.449013 -2.440971,-8.069031c-3.94998,-5.620026 -3.637001,-6.048996 -3.637001,-9.158897c-0.000999,-4.416 3.106001,-4.338997 -1.722,-7.230103c-1.7363,-1.039398 -1.751999,-2.702297 -0.921,-3.725899c0.4156,-0.511799 4.1299,-2.973099 9.3249,-3.8438c5.0574,-0.847702 10.628101,-4.556499 14.481102,-7.517101c1.493,-1.147301 13.120499,-1.6236 18.775101,-8.620197c0.625694,-0.774101 18.809395,-8.477602 21.654297,-12.625881" id="path3" fill-rule="evenodd" fill="black"/>
  <path d="m60.540802,96.334602c3.906998,-0.705002 7.776001,-2.170006 11.770996,-2.313004c3.415001,-0.123001 7.419998,2.334 10.479004,0.964005c1.449997,-0.649002 3.095001,-1.508003 4.687996,-1.688004c4.0662,-0.456001 4.921204,-6.404999 6.8442,-9.496002c4.516998,-7.256996 8.389999,-3.712997 14.257004,-5.880997c4.158997,-1.537003 3.658997,-6.264 9.761993,-4.771004c4.807999,1.175003 5.072006,-2.942993 9.091003,-5.640999c3.417999,-2.293999 7.541,-2.870995 11.005005,-4.723999c3.626999,-1.938999 4.910995,-4.355999 4.210999,-8.918999c-0.380005,-2.479 -0.393005,-5.077 -1.531006,-7.375c-1.414001,-2.855 -0.093002,-4.347 -0.478989,-7.037003c-1.617004,-11.281038 -9.652008,-12.672039 -18.997009,-11.373037c-5.375,0.747 -8.363998,-0.281 -13.348999,-1.931002c-3.018997,-0.999001 -5.654999,-1.619999 -8.755997,-0.481998c-4.576004,1.68 -9.514999,1.355999 -14.211205,3.471041c-4.932999,2.220999 -9.388,5.609999 -13.880997,8.588999c-4.021004,2.666 -11.112,3.663002 -13.780998,7.343002c-2.896004,3.991997 -8.561005,5.436996 -13.029003,6.788998c-3.747002,1.132999 -8.506001,5.273998 -11.893002,5.768002c-4.455997,0.647999 -4.883999,-0.551003 -8.852997,3.036999c6.247997,3.764004 0.127998,5.893002 -0.957001,9.256001c-0.528999,1.639 0.689999,2.635002 1.597,4.096001c0.790001,1.270996 2.561001,3.195 2.901001,4.677002c0.264999,1.151993 -1.262001,2.686996 -1.052002,3.854996c0.262001,1.459 2.196999,5.966003 2.918999,7.521004c1.778,3.830994 2.695,3.489998 5.406002,0.770996c3.154999,-3.166 6.926998,0.170998 10.623001,1.061005c0.345997,0.082993 0.473,1.060997 0.956997,1.156998c1.555,0.311996 3.313,-0.637001 5.072002,-0.482002c3.326,0.290001 6.547001,2.301003 9.186001,3.758003" id="path11" fill-rule="evenodd" fill="#ffdb00"/>
  <path d="m65.804787,88.71756c7.880005,-2.566002 -2.244995,-13.035995 0.287003,-17.547005c0.716003,-1.273994 6.359001,-3.419991 7.772003,-4.273994c4.229996,-2.556 8.906998,-4.213001 13.472,-6.041c8.702995,-3.484001 15.876999,-9.274002 24.527,-12.544003c4.043999,-1.527996 17.528,-4.836998 17.483994,-9.918999c-0.08699,-9.970999 -27.614998,7.959003 -32.153999,10.895c-7.963997,5.151001 -16.631996,6.659 -24.689995,11.182999c-3.111,1.746002 -7.426003,7.995003 -10.526001,8.388c-1.744003,0.221001 -6.723,-4.066994 -9.473999,-4.530998c-4.540001,-0.765999 -9.327003,0.356003 -13.755001,-1.187996c-5.421001,-1.893005 -3.171001,3.645996 -0.024002,5.236992c4.417999,2.234009 10.027,-0.921997 14.028004,1.302002c7.182999,3.992004 7.278999,4.850998 9.425995,12.824005c0.666,2.477997 1.039001,5.219994 3.626999,6.214996" id="path13" fill-rule="evenodd" fill="black"/>
  <path d="m43.698792,84.862556c3.821999,-0.733994 10.836998,-5.859993 3.636997,-8.003998c-4.828999,-1.437996 -8.452,6.487999 -3.636997,8.003998" id="path15" fill-rule="evenodd"/>
  <path d="m35.085789,81.005554c0.348,-0.991005 -0.806,-6.184006 -2.774998,-3.85701c-1.84,2.174011 0.896,4.624001 2.774998,3.85701" id="path17" fill-rule="evenodd"/>
  <path d="m84.943787,77.051559c4.175003,-1.238998 8.313004,-0.836998 7.943001,-5.783997c-0.151001,-2.031998 -0.529999,-3.050003 -2.391998,-3.952003c-5.116997,-2.480995 -9.431,8.161003 -5.551003,9.736" id="path19" fill-rule="evenodd"/>
  <path d="m101.97879,73.96656c2.723,0.187004 7.065002,-3.433998 4.593002,-6.170006c-3.032005,-3.352997 -10.581001,4.434006 -4.593002,6.170006" id="path21" fill-rule="evenodd"/>
  <path d="m121.691788,63.941559c1.975006,0.060005 3.106003,-1.407009 1.626999,-3.181999c-2.776993,-3.331001 -5.71199,2.733002 -1.626999,3.181999" id="path23" fill-rule="evenodd"/>
  <path d="m108.676788,60.08556c3.555,0.081001 2.651001,-4.724998 -0.383995,-4.436001c-2.319,0.221001 -2.275002,4.007999 0.383995,4.436001" id="path25" fill-rule="evenodd"/>
  <path d="m57.38279,59.409561c2.485001,0.334 5.986,-0.426003 7.655998,-2.506001c0.909004,-1.132 2.542999,-6.942001 -0.382996,-6.942001c-3.671005,0 -12.738003,6.733002 -7.273003,9.448002" id="path27" fill-rule="evenodd" fill="black"/>
  <path d="m132.504791,51.310551c2.069992,-1.367001 1.132996,-4.985001 -1.436005,-5.012001c-4.11499,-0.042 -2.46199,5.791 1.436005,5.012001" id="path31" fill-rule="evenodd"/>
  <path d="m78.914787,48.611561c6.157005,0.463001 5.107002,-7.73 0.383003,-4.916c-2.164001,1.289001 -2.655998,4.105999 -0.383003,4.916" id="path33" fill-rule="evenodd"/>
  <path d="m94.991791,41.380562c2.206001,-0.709 2.539001,-4.063004 -0.097,-4.82c-3.126999,-0.896999 -2.508003,4.417 0.097,4.82" id="path35" fill-rule="evenodd"/>
  <path d="m81.977791,39.35656c2.866997,-1.002998 1.045998,-5.660999 -1.530998,-5.109001c-3.383003,0.724003 -0.527,4.870003 1.530998,5.109001" id="path37" fill-rule="evenodd"/>
  <path d="m103.317787,36.17556c3.624001,-2.451 -2.695,-3.585999 0,0" id="path39" fill-rule="evenodd"/>
 </g>
</svg>