<?xml version="1.0"?><svg width="640" height="480" xmlns="http://www.w3.org/2000/svg">
 <title>starfish</title>
 <g>
  <title>Layer 1</title>
  <g>
   <path stroke="#fc8080" d="m121.107002,380.411987c-13.809006,9.032013 -24.099998,2.959015 -22.869003,-13.493988l6.163002,-82.417999c1.229996,-16.453003 -8.281998,-38.377014 -21.139,-48.719009l-64.398001,-51.800003c-12.857,-10.341995 -10.262,-22.005997 5.767,-25.919998l80.286999,-19.606003c16.028999,-3.914993 33.940002,-19.735992 39.802994,-35.159996l29.364014,-77.253998c5.862991,-15.423002 17.757996,-16.560003 26.43399,-2.524002l43.458008,70.297989c8.675995,14.035004 29.25798,26.18 45.737991,26.989998l82.546997,4.055008c16.480011,0.809998 21.235992,11.770996 10.569,24.358994l-53.428986,63.054001c-10.667023,12.587997 -15.856995,35.915985 -11.535004,51.839996l21.652008,79.759003c4.321991,15.924011 -4.633026,23.835022 -19.901001,17.580017l-76.479004,-31.32901c-15.268997,-6.255005 -39.05899,-3.981995 -52.867004,5.050018l-69.165001,45.238983z" fill="#ff7777"/>
   <path d="m121.107002,380.411987c-13.809006,9.032013 -24.099998,2.959015 -22.869003,-13.493988l6.163002,-82.417999c1.229996,-16.453003 -8.281998,-38.377014 -21.139,-48.719009l-64.398001,-51.800003c-12.857,-10.341995 -10.262,-22.005997 5.767,-25.919998l80.286999,-19.606003c16.028999,-3.914993 33.940002,-19.735992 39.802994,-35.159996l29.364014,-77.253998c5.862991,-15.423002 17.757996,-16.560003 26.43399,-2.524002l43.458008,70.297989c8.675995,14.035004 29.25798,26.18 45.737991,26.989998l82.546997,4.055008c16.480011,0.809998 21.235992,11.770996 10.569,24.358994l-53.428986,63.054001c-10.667023,12.587997 -15.856995,35.915985 -11.535004,51.839996l21.652008,79.759003c4.321991,15.924011 -4.633026,23.835022 -19.901001,17.580017l-76.479004,-31.32901c-15.268997,-6.255005 -39.05899,-3.981995 -52.867004,5.050018l-69.165001,45.238983z" stroke-miterlimit="10" stroke="#fc8080" fill="#ff7777"/>
  </g>
  <ellipse ry="16.25" rx="17.917" cy="234.417" cx="224.984" stroke-miterlimit="10" stroke="#ffffff" fill="#ffffff"/>
  <ellipse ry="16.25" rx="17.917" cy="194" cx="163.683" stroke-miterlimit="10" stroke="#ffffff" fill="#ffffff"/>
  <ellipse ry="16.25" rx="17.917" cy="194" cx="242.901" stroke-miterlimit="10" stroke="#ffffff" fill="#ffffff"/>
  <ellipse ry="16.25" rx="17.917" cy="235.417" cx="178.939" stroke-miterlimit="10" stroke="#ffffff" fill="#ffffff"/>
  <ellipse ry="16.25" rx="17.917" cy="162.5" cx="201.35" stroke-miterlimit="10" stroke="#ffffff" fill="#ffffff"/>
  <ellipse ry="11" rx="12.128" cy="190" cx="128.363" stroke-miterlimit="10" stroke="#ffffff" fill="#ffffff"/>
  <ellipse ry="11" rx="12.128" cy="267.5" cx="167.812" stroke-miterlimit="10" stroke="#ffffff" fill="#ffffff"/>
  <ellipse ry="11" rx="12.128" cy="262.667" cx="244.696" stroke-miterlimit="10" stroke="#ffffff" fill="#ffffff"/>
  <ellipse ry="11" rx="12.128" cy="180.5" cx="272.494" stroke-miterlimit="10" stroke="#ffffff" fill="#ffffff"/>
  <ellipse ry="11" rx="12.128" cy="132" cx="199.856" stroke-miterlimit="10" stroke="#ffffff" fill="#ffffff"/>
  <path d="m113.235001,188c0,3.311005 -2.965004,6 -6.614998,6c-3.653,0 -6.615005,-2.688995 -6.615005,-6c0,-3.313004 2.962006,-6 6.615005,-6c3.649994,0 6.614998,2.686996 6.614998,6z" stroke-miterlimit="10" stroke="#ffffff" fill="#ffffff"/>
  <path d="m162.298996,289.5c0,3.311005 -2.964996,6 -6.61499,6c-3.653,0 -6.615005,-2.688995 -6.615005,-6c0,-3.312988 2.962006,-6 6.615005,-6c3.649994,0 6.61499,2.687012 6.61499,6z" stroke-miterlimit="10" stroke="#ffffff" fill="#ffffff"/>
  <path d="m272.493988,283.5c0,3.311005 -2.964996,6 -6.61499,6c-3.653015,0 -6.615021,-2.688995 -6.615021,-6c0,-3.312988 2.962006,-6 6.615021,-6c3.649994,0 6.61499,2.687012 6.61499,6z" stroke-miterlimit="10" stroke="#ffffff" fill="#ffffff"/>
  <path d="m204.759995,109.833c0,3.310997 -2.965012,6 -6.615005,6c-3.653,0 -6.615005,-2.689003 -6.615005,-6c0,-3.313004 2.962006,-6 6.615005,-6c3.650009,0 6.615005,2.686996 6.615005,6z" stroke-miterlimit="10" stroke="#ffffff" fill="#ffffff"/>
  <path d="m300.057007,171c0,3.311005 -2.964996,6 -6.61499,6c-3.653015,0 -6.615021,-2.688995 -6.615021,-6c0,-3.313004 2.962006,-6 6.615021,-6c3.649994,0 6.61499,2.686996 6.61499,6z" stroke-miterlimit="10" stroke="#ffffff" fill="#ffffff"/>
  <ellipse ry="4" rx="4.41" cy="185" cx="91.423" stroke-miterlimit="10" stroke="#ffffff" fill="#ffffff"/>
  <ellipse ry="4" rx="4.41" cy="92" cx="194.94" stroke-miterlimit="10" stroke="#ffffff" fill="#ffffff"/>
  <ellipse ry="4" rx="4.41" cy="309.667" cx="144.658" stroke-miterlimit="10" stroke="#ffffff" fill="#ffffff"/>
  <ellipse ry="4" rx="4.41" cy="298.167" cx="278.006" stroke-miterlimit="10" stroke="#ffffff" fill="#ffffff"/>
  <ellipse ry="4" rx="4.41" cy="161.5" cx="310.487" stroke-miterlimit="10" stroke="#ffffff" fill="#ffffff"/>
  <ellipse ry="2" rx="2.205" cy="183" cx="76.372" stroke-miterlimit="10" stroke="#ffffff" fill="#ffffff"/>
  <ellipse ry="2" rx="2.205" cy="321.5" cx="134.183" stroke-miterlimit="10" stroke="#ffffff" fill="#ffffff"/>
  <ellipse ry="2" rx="2.205" cy="311.667" cx="291.237" stroke-miterlimit="10" stroke="#ffffff" fill="#ffffff"/>
  <ellipse ry="2" rx="2.205" cy="75" cx="194.939" stroke-miterlimit="10" stroke="#ffffff" fill="#ffffff"/>
  <ellipse ry="2" rx="2.205" cy="155.5" cx="331.667" stroke-miterlimit="10" stroke="#ffffff" fill="#ffffff"/>
  <g transform="rotate(124.897, 202.258, 202.344)">
   <path stroke="#ffffff" d="m214.082993,208.804001c1.220993,2.934006 -0.292999,4.666992 -3.363998,3.850998c-3.070999,-0.815002 -7.559006,0.209 -9.972,2.276001s-4.529007,1.162994 -4.702011,-2.011002c-0.172989,-3.173004 -2.533997,-7.123993 -5.245987,-8.779999s-2.505005,-3.947998 0.457993,-5.093002s5.992004,-4.610992 6.729004,-7.701996s2.981003,-3.602997 4.985992,-1.138s6.236008,4.274002 9.404007,4.020004c3.166992,-0.253998 4.347992,1.722 2.623001,4.389999s-2.135986,7.251999 -0.916,10.186996z" fill="#ffffff"/>
   <path d="m214.082993,208.804001c1.220993,2.934006 -0.292999,4.666992 -3.363998,3.850998c-3.070999,-0.815002 -7.559006,0.209 -9.972,2.276001s-4.529007,1.162994 -4.702011,-2.011002c-0.172989,-3.173004 -2.533997,-7.123993 -5.245987,-8.779999s-2.505005,-3.947998 0.457993,-5.093002s5.992004,-4.610992 6.729004,-7.701996s2.981003,-3.602997 4.985992,-1.138s6.236008,4.274002 9.404007,4.020004c3.166992,-0.253998 4.347992,1.722 2.623001,4.389999s-2.135986,7.251999 -0.916,10.186996z" stroke-miterlimit="10" stroke="#ffffff" fill="#ffffff"/>
  </g>
 </g>
</svg>